<svg xmlns="http://www.w3.org/2000/svg" viewBox="0 0 512 512">
  <rect width="512" height="512" rx="112" fill="#0f766e"/>
  <path d="M148 146h216a34 34 0 0 1 34 34v188a34 34 0 0 1-34 34H148a34 34 0 0 1-34-34V180a34 34 0 0 1 34-34z" fill="#ecfeff"/>
  <path d="M168 216h176M168 272h176M168 328h104" stroke="#0f766e" stroke-width="30" stroke-linecap="round"/>
  <path d="m166 146 42-42m136 42-42-42" stroke="#ecfeff" stroke-width="28" stroke-linecap="round"/>
  <circle cx="352" cy="340" r="58" fill="#f59e0b"/>
  <path d="m328 340 16 16 34-38" fill="none" stroke="#fff" stroke-width="20" stroke-linecap="round" stroke-linejoin="round"/>
</svg>
